HIERARCHY
ROOT Hips
{
    OFFSET 0.0 0.0 0.0
    CHANNELS 6 Xposition Yposition Zposition Zrotation Xrotation Yrotation
    JOINT Spine
    {
        OFFSET 0.0 5.0 0.0
        CHANNELS 3 Zrotation Xrotation Yrotation
        JOINT Chest
        {
            OFFSET 0.0 5.0 0.0
            CHANNELS 3 Zrotation Xrotation Yrotation
            JOINT Neck
            {
                OFFSET 0.0 8.0 0.0
                CHANNELS 3 Zrotation Xrotation Yrotation
                JOINT Head
                {
                    OFFSET 0.0 5.0 0.0
                    CHANNELS 3 Zrotation Xrotation Yrotation
                    End Site
                    {
                        OFFSET 0.0 3.0 0.0
                    }
                }
            }
            JOINT LeftShoulder
            {
                OFFSET -5.0 0.0 0.0
                CHANNELS 3 Zrotation Xrotation Yrotation
                JOINT LeftArm
                {
                    OFFSET 0.0 -10.0 0.0
                    CHANNELS 3 Zrotation Xrotation Yrotation
                    JOINT LeftForeArm
                    {
                        OFFSET 0.0 -10.0 0.0
                        CHANNELS 3 Zrotation Xrotation Yrotation
                        End Site
                        {
                            OFFSET 0.0 -3.0 0.0
                        }
                    }
                }
            }
        }
    }
}

MOTION
Frames: 14
Frame Time: 0.033333
960.000000 445.000000 89.211500 0.000000 0.000000 0.000000 0.000000 0.000000 0.000000 23.025492 -11.373465 0.000000 180.000000 7.155825 0.000000 21.801409 -3.332758 -0.000000 158.198591 7.748021 30.000000 15.945396 -3.850868 0.000000 18.000000 0.325476 0.000000
1691.525230 140.756605 90.604299 0.000000 0.000000 0.000000 0.000000 0.000000 0.000000 -163.376529 10.091042 4.973798 16.623471 -7.398953 4.973798 -171.853121 -3.236352 3.759997 99.744051 -18.008198 29.763441 -171.126653 -3.537633 -3.759997 0.673538 0.443638 0.313953
1636.048050 128.802021 114.417461 0.000000 0.000000 0.000000 0.000000 0.000000 0.000000 157.904128 -14.147408 9.635073 -22.095872 16.570807 9.635073 -171.936471 -4.027063 7.460697 -143.675701 3.839473 29.057495 -173.500805 -4.331721 -7.460697 0.570999 0.508271 0.626666
1578.156967 80.474526 117.862625 0.000000 0.000000 0.000000 0.000000 0.000000 0.000000 -139.519796 -14.896262 13.690942 40.480204 8.593638 13.690942 -174.507724 -4.095099 11.043737 119.111399 -1.797572 27.893295 -173.607258 -3.784311 -11.043737 0.461920 0.472099 0.936907
960.418757 444.998421 125.410640 0.000000 0.000000 0.000000 0.000000 0.000000 0.000000 25.077893 -12.128242 16.886559 180.000000 -7.196458 16.886559 23.861935 1.398449 14.452610 156.138065 -8.863123 26.289200 17.903699 2.344395 -14.452610 18.000000 -0.025229 1.243449
960.523360 444.997533 132.569462 0.000000 0.000000 0.000000 0.000000 0.000000 0.000000 25.638906 15.179995 19.021130 180.000000 -4.185646 19.021130 24.425035 -8.095602 17.633558 155.574965 8.139899 24.270510 18.452907 -1.303613 -17.633558 18.000000 -0.391806 1.545085
960.627905 444.996447 125.537424 0.000000 0.000000 0.000000 0.000000 0.000000 0.000000 26.219073 14.771629 19.960535 180.000000 -1.084023 19.960535 25.006291 -4.775015 20.536413 154.993709 -11.903031 21.869059 19.024920 7.010748 -20.536413 18.000000 -0.950157 1.840623
1126.242828 420.359820 117.061722 0.000000 0.000000 0.000000 0.000000 0.000000 0.000000 31.410514 -4.437965 19.645745 -148.589486 1.931576 19.645745 32.280463 -2.471749 23.115397 -131.603972 -1.927546 19.122720 45.585331 -0.138254 -23.115397 -13.449727 -0.066989 2.128896
1257.895088 650.549197 140.876725 0.000000 0.000000 0.000000 0.000000 0.000000 0.000000 25.073180 -1.494046 18.096541 -154.926820 -7.737981 18.096541 46.260945 -3.924343 25.329838 -154.651428 -5.429755 16.074804 27.339487 5.014886 -25.329838 -13.619892 0.851677 2.408768
960.941083 444.992008 131.597230 0.000000 0.000000 0.000000 0.000000 0.000000 0.000000 28.072001 -14.205844 15.410265 180.000000 -11.805424 15.410265 26.849221 9.157887 27.144812 153.150779 -4.574597 12.773379 20.864045 8.525211 -27.144812 18.000000 -0.621575 2.679134
1163.815842 547.748709 144.946896 0.000000 0.000000 0.000000 0.000000 0.000000 0.000000 117.162728 -7.126954 11.755705 -62.837272 5.791687 11.755705 102.363764 -4.396162 28.531695 -47.376450 0.478590 9.270510 104.768601 4.569834 -28.531695 -6.003489 -0.537497 2.938926
961.149372 444.988063 139.538819 0.000000 0.000000 0.000000 0.000000 0.000000 0.000000 29.395983 38.052739 7.362491 180.000000 -16.460995 7.362491 28.146217 -2.994319 29.468618 151.853783 -3.872756 5.621439 22.170006 1.433868 -29.468618 18.000000 -0.332499 3.187120
1136.717377 590.104480 128.377120 0.000000 0.000000 0.000000 0.000000 0.000000 0.000000 115.752126 -0.999268 2.506665 -64.247874 -3.672378 2.506665 73.638146 7.007650 29.940802 -21.842452 0.996827 1.883716 75.369282 3.546979 -29.940802 -6.767207 -0.584532 3.422736
1163.079758 634.077559 154.132949 0.000000 0.000000 0.000000 0.000000 0.000000 0.000000 132.174340 -7.057829 -2.506665 -47.825660 6.201802 -2.506665 94.255711 -11.112294 29.940802 -149.364979 -6.604144 -1.883716 30.021641 5.715057 -29.940802 -5.096180 -0.395395 3.644843
